<?xml version="1.0" encoding="UTF-8" standalone="no"?>
<!-- Created with Inkscape (http://www.inkscape.org/) -->

<svg
   width="270.93332mm"
   height="270.93332mm"
   viewBox="0 0 270.93332 270.93332"
   version="1.1"
   id="svg1"
   xml:space="preserve"
   inkscape:version="1.3.2 (091e20e, 2023-11-25, custom)"
   sodipodi:docname="calc.svg"
   xmlns:inkscape="http://www.inkscape.org/namespaces/inkscape"
   xmlns:sodipodi="http://sodipodi.sourceforge.net/DTD/sodipodi-0.dtd"
   xmlns:xlink="http://www.w3.org/1999/xlink"
   xmlns="http://www.w3.org/2000/svg"
   xmlns:svg="http://www.w3.org/2000/svg"><sodipodi:namedview
     id="namedview1"
     pagecolor="#505050"
     bordercolor="#ffffff"
     borderopacity="1"
     inkscape:showpageshadow="0"
     inkscape:pageopacity="0"
     inkscape:pagecheckerboard="1"
     inkscape:deskcolor="#505050"
     inkscape:document-units="mm"
     showguides="true"
     inkscape:zoom="0.5"
     inkscape:cx="596"
     inkscape:cy="489"
     inkscape:window-width="1920"
     inkscape:window-height="1017"
     inkscape:window-x="1912"
     inkscape:window-y="-8"
     inkscape:window-maximized="1"
     inkscape:current-layer="layer1" /><defs
     id="defs1"><linearGradient
       id="linearGradient44"
       inkscape:collect="always"><stop
         style="stop-color:#bcdcf5;stop-opacity:1;"
         offset="0"
         id="stop44" /><stop
         style="stop-color:#9fc2de;stop-opacity:1;"
         offset="1"
         id="stop45" /></linearGradient><linearGradient
       inkscape:collect="always"
       xlink:href="#linearGradient44"
       id="linearGradient45"
       x1="-244.94905"
       y1="23.015244"
       x2="-26.849045"
       y2="241.11525"
       gradientUnits="userSpaceOnUse" /></defs><g
     inkscape:label="Warstwa 1"
     inkscape:groupmode="layer"
     id="layer1"
     transform="translate(0,3.6805761)"><rect
       style="fill:#101b24;fill-opacity:1;stroke-width:0.341987"
       id="rect21"
       width="180"
       height="180"
       x="-448.1604"
       y="366.10281"
       ry="24.912304" /><rect
       style="fill:#00ffff;fill-opacity:1;stroke-width:0.283155"
       id="rect22"
       width="149.03484"
       height="149.03484"
       x="-432.67767"
       y="381.58551"
       ry="0" /><rect
       style="fill:#ff0000;fill-opacity:1;stroke-width:0.0755082"
       id="rect23"
       width="39.742664"
       height="39.742664"
       x="-432.67767"
       y="381.58551"
       ry="0" /><rect
       style="fill:#ff0000;fill-opacity:1;stroke-width:0.0755082"
       id="rect24"
       width="39.742664"
       height="39.742664"
       x="-378.03159"
       y="381.58551"
       ry="0" /><rect
       style="fill:#ff0000;fill-opacity:1;stroke-width:0.0755082"
       id="rect25"
       width="39.742664"
       height="39.742664"
       x="-323.3855"
       y="381.58551"
       ry="0" /><rect
       style="fill:#ff0000;fill-opacity:1;stroke-width:0.0755082"
       id="rect26"
       width="39.742664"
       height="39.742664"
       x="-432.67767"
       y="436.202"
       ry="0" /><rect
       style="fill:#ff0000;fill-opacity:1;stroke-width:0.0755082"
       id="rect27"
       width="39.742664"
       height="39.742664"
       x="-378.03159"
       y="436.23163"
       ry="0" /><rect
       style="fill:#ff0000;fill-opacity:1;stroke-width:0.0755082"
       id="rect28"
       width="39.742664"
       height="39.742664"
       x="-323.3855"
       y="436.2316"
       ry="0" /><rect
       style="fill:#ff0000;fill-opacity:1;stroke-width:0.0755082"
       id="rect29"
       width="39.742664"
       height="39.742664"
       x="-432.67767"
       y="490.87769"
       ry="0" /><rect
       style="fill:#ff0000;fill-opacity:1;stroke-width:0.0755082"
       id="rect30"
       width="39.742664"
       height="39.742664"
       x="-378.03159"
       y="490.87772"
       ry="0" /><rect
       style="fill:#ff0000;fill-opacity:1;stroke-width:0.0755082"
       id="rect31"
       width="39.742664"
       height="39.742664"
       x="-323.3855"
       y="490.87769"
       ry="0" /><g
       id="g45"
       inkscape:export-filename="CALC.png"
       inkscape:export-xdpi="96"
       inkscape:export-ydpi="96"
       transform="matrix(1.2425172,0,0,1.2425172,304.35341,-32.277412)"><rect
         style="fill:url(#linearGradient45);fill-opacity:1;stroke-width:0.414374"
         id="rect44"
         width="218.10001"
         height="218.10001"
         x="-244.94905"
         y="23.015244"
         ry="0" /><rect
         style="fill:#101b24;fill-opacity:1;stroke-width:0.341987"
         id="rect10"
         width="180"
         height="180"
         x="-225.89905"
         y="42.065243"
         ry="24.912304" /><rect
         style="fill:#c0daf2;fill-opacity:1;stroke-width:0.146221"
         id="rect11"
         width="149.03484"
         height="39.742664"
         x="-210.41634"
         y="57.547947"
         ry="10" /><rect
         style="fill:#f9f9f9;fill-opacity:1;stroke-width:0.0755082"
         id="rect14"
         width="39.742664"
         height="39.742664"
         x="-210.41634"
         y="112.16444"
         ry="10" /><rect
         style="fill:#f9f9f9;fill-opacity:1;stroke-width:0.0755082"
         id="rect15"
         width="39.742664"
         height="39.742664"
         x="-155.77025"
         y="112.19405"
         ry="10" /><rect
         style="fill:#c0daf2;fill-opacity:1;stroke-width:0.0755082"
         id="rect16"
         width="39.742664"
         height="39.742664"
         x="-101.12416"
         y="112.19404"
         ry="10" /><rect
         style="fill:#f9f9f9;fill-opacity:1;stroke-width:0.0755082"
         id="rect17"
         width="39.742664"
         height="39.742664"
         x="-210.41634"
         y="166.84012"
         ry="10" /><rect
         style="fill:#f9f9f9;fill-opacity:1;stroke-width:0.0755082"
         id="rect18"
         width="39.742664"
         height="39.742664"
         x="-155.77025"
         y="166.84013"
         ry="10" /><rect
         style="fill:#c0daf2;fill-opacity:1;stroke-width:0.0755082"
         id="rect20"
         width="39.742664"
         height="39.742664"
         x="-101.12416"
         y="166.84012"
         ry="10" /><text
         xml:space="preserve"
         style="font-style:normal;font-variant:normal;font-weight:normal;font-stretch:normal;font-size:46.0409px;font-family:'Eras Bold ITC';-inkscape-font-specification:'Eras Bold ITC';text-align:start;text-anchor:start;fill:#101b24;fill-opacity:1;stroke-width:0.863266"
         x="-198.12599"
         y="93.504074"
         id="text32"><tspan
           sodipodi:role="line"
           id="tspan32"
           style="font-style:normal;font-variant:normal;font-weight:normal;font-stretch:normal;font-size:46.0409px;font-family:'Poppins ExtraBold';-inkscape-font-specification:'Poppins ExtraBold, ';fill:#101b24;fill-opacity:1;stroke-width:0.863266"
           x="-198.12599"
           y="93.504074">CALC</tspan></text><path
         d="m -198.26096,173.60403 v 26.21484 h 15.43191 v -5.57761 h -8.14354 v -20.63723 z"
         style="font-size:46.0409px;font-family:'Poppins ExtraBold';-inkscape-font-specification:'Poppins ExtraBold, ';fill:#101b24;stroke-width:0.69721"
         id="path41" /><path
         d="m -140.08191,118.95797 -9.55673,26.21484 h 7.66024 l 1.41277,-4.27627 h 9.29628 l 1.41319,4.27627 h 7.69697 l -9.51916,-26.21484 z m 4.16442,7.88311 2.82637,8.47785 h -5.61517 z"
         style="font-size:46.0409px;font-family:'Poppins ExtraBold';-inkscape-font-specification:'Poppins ExtraBold, ';fill:#101b24;stroke-width:0.69721"
         id="path40" /><path
         d="m -135.65706,173.38075 c -2.57812,0 -4.85904,0.57002 -6.84221,1.71035 -1.98318,1.11553 -3.52025,2.68968 -4.61101,4.72243 -1.06596,2.00797 -1.5989,4.30123 -1.5989,6.87936 0,2.60292 0.53294,4.92048 1.5989,6.95323 1.09076,2.00797 2.62783,3.58211 4.61101,4.72244 1.98317,1.11553 4.26409,1.67362 6.84221,1.67362 3.27224,0 6.0239,-0.8678 8.25498,-2.60308 2.23107,-1.76007 3.66889,-4.13982 4.31342,-7.13938 h -7.84596 c -0.47101,0.99159 -1.12793,1.74778 -1.97078,2.26836 -0.81806,0.52058 -1.77277,0.78088 -2.86351,0.78088 -1.6857,0 -3.03661,-0.59515 -4.05299,-1.78505 -0.99159,-1.2147 -1.48748,-2.83826 -1.48748,-4.87102 0,-2.00796 0.49589,-3.60682 1.48748,-4.79672 1.01638,-1.2147 2.36729,-1.8222 4.05299,-1.8222 1.09074,0 2.04545,0.2603 2.86351,0.78088 0.84285,0.52058 1.49977,1.27677 1.97078,2.26836 h 7.84596 c -0.64453,-2.99956 -2.08235,-5.36695 -4.31342,-7.10223 -2.23108,-1.76007 -4.98274,-2.64023 -8.25498,-2.64023 z"
         style="font-size:46.0409px;font-family:'Poppins ExtraBold';-inkscape-font-specification:'Poppins ExtraBold, ';fill:#101b24;stroke-width:0.69721"
         id="path39" /><path
         d="m -190.30335,118.70506 c -2.57813,0 -4.85862,0.57002 -6.8418,1.71035 -1.98317,1.11553 -3.52025,2.68968 -4.611,4.72243 -1.06596,2.00797 -1.59891,4.30123 -1.59891,6.87936 0,2.60292 0.53295,4.92047 1.59891,6.95323 1.09075,2.00797 2.62783,3.58211 4.611,4.72244 1.98318,1.11553 4.26367,1.67361 6.8418,1.67361 3.27224,0 6.02391,-0.8678 8.25498,-2.60308 2.23107,-1.76006 3.66888,-4.13982 4.31342,-7.13937 h -7.84596 c -0.47101,0.99159 -1.12793,1.74777 -1.97079,2.26836 -0.81805,0.52058 -1.77234,0.78088 -2.86309,0.78088 -1.68569,0 -3.03661,-0.59515 -4.05299,-1.78505 -0.99158,-1.2147 -1.48748,-2.83827 -1.48748,-4.87102 0,-2.00797 0.4959,-3.60682 1.48748,-4.79673 1.01638,-1.21469 2.3673,-1.82219 4.05299,-1.82219 1.09075,0 2.04504,0.26029 2.86309,0.78088 0.84286,0.52058 1.49978,1.27677 1.97079,2.26835 h 7.84596 c -0.64454,-2.99955 -2.08235,-5.36695 -4.31342,-7.10222 -2.23107,-1.76007 -4.98274,-2.64023 -8.25498,-2.64023 z"
         style="font-size:46.0409px;font-family:'Poppins ExtraBold';-inkscape-font-specification:'Poppins ExtraBold, ';fill:#101b24;stroke-width:0.69721"
         id="path38" /><path
         id="path44"
         style="font-size:36.7832px;font-family:'Poppins ExtraBold';-inkscape-font-specification:'Poppins ExtraBold, ';fill:#101b24;stroke-width:0.689684"
         d="m -91.791204,178.54554 v 6.51072 h 21.07675 v -6.51072 z m 0,9.8578 v 6.47402 h 21.07675 v -6.47402 z" /><path
         d="m -84.692154,122.68558 v 6.14278 h -5.95881 v 6.51072 h 5.95881 v 6.10608 h 6.91534 v -6.10608 h 5.92212 v -6.51072 h -5.92212 v -6.14278 z"
         style="font-size:36.7832px;font-family:'Poppins ExtraBold';-inkscape-font-specification:'Poppins ExtraBold, ';fill:#101b24;stroke-width:0.689684"
         id="path42" /></g></g></svg>
